<mxfile host="app.diagrams.net" agent="Mozilla/5.0 (Windows NT 10.0; Win64; x64) AppleWebKit/537.36 (KHTML, like Gecko) Chrome/127.0.0.0 Safari/537.36 Edg/127.0.0.0" version="24.7.7">
  <diagram name="第 1 页" id="-n2BK7J7ZWPqKmCRiMLF">
    <mxGraphModel dx="1213" dy="663" grid="0" gridSize="10" guides="1" tooltips="1" connect="1" arrows="1" fold="1" page="0" pageScale="1" pageWidth="1200" pageHeight="1600" math="0" shadow="0">
      <root>
        <mxCell id="0" />
        <mxCell id="1" parent="0" />
        <mxCell id="3YwF6kuUjmhZSn7B0TOU-1" value="" style="triangle;whiteSpace=wrap;html=1;rotation=-90;" vertex="1" parent="1">
          <mxGeometry x="512" y="71" width="118" height="80" as="geometry" />
        </mxCell>
        <mxCell id="3YwF6kuUjmhZSn7B0TOU-2" value="" style="triangle;whiteSpace=wrap;html=1;rotation=-90;" vertex="1" parent="1">
          <mxGeometry x="213.5" y="458.5" width="67" height="44" as="geometry" />
        </mxCell>
        <mxCell id="3YwF6kuUjmhZSn7B0TOU-3" value="" style="triangle;whiteSpace=wrap;html=1;rotation=-90;" vertex="1" parent="1">
          <mxGeometry x="313" y="466" width="118" height="80" as="geometry" />
        </mxCell>
        <mxCell id="3YwF6kuUjmhZSn7B0TOU-4" value="" style="triangle;whiteSpace=wrap;html=1;rotation=-90;" vertex="1" parent="1">
          <mxGeometry x="413" y="466" width="118" height="80" as="geometry" />
        </mxCell>
      </root>
    </mxGraphModel>
  </diagram>
</mxfile>
